<?xml version="1.0" standalone="no"?>
<!DOCTYPE svg PUBLIC "-//W3C//DTD SVG 20010904//EN"
 "http://www.w3.org/TR/2001/REC-SVG-20010904/DTD/svg10.dtd">
<svg version="1.0" xmlns="http://www.w3.org/2000/svg"
 width="2000.000000pt" height="2000.000000pt" viewBox="0 0 2000.000000 2000.000000"
 preserveAspectRatio="xMidYMid meet">

<g transform="translate(0.000000,2000.000000) scale(0.100000,-0.100000)"
fill="#000000" stroke="none">
<path d="M10 9995 l0 -9995 9995 0 9995 0 0 9995 0 9995 -9995 0 -9995 0 0
-9995z m10380 6285 c1389 -96 2681 -634 3731 -1557 982 -861 1681 -1998 2004
-3258 266 -1038 269 -2114 9 -3140 -428 -1687 -1568 -3111 -3139 -3921 -1390
-717 -3028 -901 -4546 -513 -400 102 -864 271 -1134 413 -751 396 -1205 1021
-1332 1836 -23 145 -25 602 -5 750 53 373 115 577 402 1325 592 1541 1304
3137 1895 4250 476 896 855 1476 1190 1824 306 318 492 384 734 261 90 -45
178 -115 296 -234 500 -506 1129 -1685 1813 -3396 498 -1248 989 -2709 1231
-3665 119 -472 153 -705 117 -811 -43 -131 -154 -189 -300 -159 -105 22 -158
51 -416 230 -1079 745 -2194 1367 -3310 1845 -716 306 -1461 562 -2030 695
-63 15 -118 29 -122 31 -3 2 19 60 50 129 41 92 60 125 73 125 63 0 680 -156
1031 -261 1449 -432 2803 -1051 3927 -1797 382 -253 630 -449 821 -648 68 -71
88 -88 70 -59 -41 68 -161 256 -222 348 -43 64 -65 110 -83 172 -162 557 -622
1958 -905 2750 -814 2285 -1611 3885 -2091 4195 -110 71 -194 71 -330 -1 -609
-325 -1576 -2160 -2784 -5285 -177 -456 -410 -1079 -459 -1225 -179 -538 -205
-1101 -70 -1546 194 -641 680 -1108 1494 -1435 465 -187 1037 -311 1614 -349
224 -15 726 -6 931 15 680 73 1314 255 1931 556 265 129 451 234 679 384 1437
946 2390 2438 2594 4061 46 367 52 822 17 1175 -166 1630 -1065 3163 -2466
4202 -274 203 -581 389 -915 553 -1020 501 -2039 664 -3245 520 -608 -74
-1224 -236 -1752 -463 -576 -248 -1105 -624 -1618 -1148 -795 -813 -1334
-1832 -1614 -3054 -225 -983 -267 -2172 -111 -3170 12 -80 21 -146 20 -148 -4
-5 -83 223 -121 346 -214 705 -299 1531 -243 2362 149 2233 1480 4239 3477
5239 714 357 1511 582 2277 641 77 6 158 12 180 13 100 8 624 6 755 -3z m-258
-5519 c75 -36 134 -94 170 -169 30 -60 33 -75 33 -152 0 -71 -5 -94 -26 -140
-37 -77 -87 -131 -161 -171 -59 -32 -69 -34 -158 -34 -83 0 -102 3 -155 28
-157 73 -236 250 -187 414 35 113 114 198 222 237 65 24 199 17 262 -13z
m-3682 -1162 c102 -6 187 -13 189 -15 4 -4 -85 -241 -99 -264 -7 -11 -31 -7
-127 18 -360 95 -809 141 -1395 143 -277 1 -298 2 -248 15 155 38 517 86 775
103 197 12 697 12 905 0z"/>
</g>
</svg>
